<svg width="18" height="17" viewBox="0 0 18 17" fill="none" xmlns="http://www.w3.org/2000/svg">
<path d="M1.4646 5.92826H16.8895M4.89236 0.786621V2.5005M13.4618 0.786621V2.5005M4.03542 8.49909H5.7493M8.32012 8.49909H10.034M12.6048 8.49909H14.3187M4.03542 11.0699H5.7493M8.32012 11.0699H10.034M12.6048 11.0699H14.3187M4.03542 13.6407H5.7493M8.32012 13.6407H10.034M12.6048 13.6407H14.3187M4.20681 16.2116H14.1473C15.1072 16.2116 15.5872 16.2115 15.9538 16.0247C16.2762 15.8605 16.5384 15.5982 16.7027 15.2758C16.8895 14.9092 16.8895 14.4292 16.8895 13.4693V5.24271C16.8895 4.28284 16.8895 3.80291 16.7027 3.4363C16.5384 3.11381 16.2762 2.85162 15.9538 2.68731C15.5872 2.5005 15.1072 2.5005 14.1473 2.5005H4.20681C3.24695 2.5005 2.76701 2.5005 2.4004 2.68731C2.0779 2.85162 1.81571 3.11381 1.6514 3.4363C1.4646 3.80291 1.4646 4.28284 1.4646 5.24271V13.4693C1.4646 14.4292 1.4646 14.9092 1.6514 15.2758C1.81571 15.5982 2.0779 15.8605 2.4004 16.0247C2.76701 16.2115 3.24694 16.2116 4.20681 16.2116Z" stroke="white" stroke-width="1.5" stroke-linecap="round"/>
</svg>
