<svg width="51" height="50" viewBox="0 0 51 50" fill="none" xmlns="http://www.w3.org/2000/svg">
<path d="M36.8593 23.0238L47.5 16.1905L25.0293 3.5L2.2793 16.1905L13.6543 22.5357L25.0293 28.881L36.8593 23.0238V36.6905C36.8593 40.5952 31.3993 44.5 25.0293 44.5C18.6593 44.5 13.1993 40.5952 13.1993 36.6905V29.8571V26.4405V22.2819L25.0293 28.881" fill="#ED802A" fill-opacity="0.9"/>
<path d="M36.8593 23.0238L47.5 16.1905L25.0293 3.5L2.2793 16.1905L13.6543 22.5357L25.0293 28.881M36.8593 23.0238L25.0293 28.881M36.8593 23.0238V36.6905C36.8593 40.5952 31.3993 44.5 25.0293 44.5C18.6593 44.5 13.1993 40.5952 13.1993 36.6905V29.8571V26.4405V22.2819L25.0293 28.881" stroke="#ED802A" stroke-width="2" stroke-linecap="round" stroke-linejoin="round"/>
</svg>
