<svg width="44" height="44" viewBox="0 0 44 44" fill="none" xmlns="http://www.w3.org/2000/svg">
<path d="M5.77051 16.47L22.0002 3.84692L38.2299 16.47V36.3063C38.2299 37.2628 37.8499 38.1802 37.1735 38.8566C36.4972 39.5329 35.5798 39.9129 34.6233 39.9129H9.37711C8.42058 39.9129 7.50322 39.5329 6.82686 38.8566C6.15049 38.1802 5.77051 37.2628 5.77051 36.3063V16.47Z" stroke="black" stroke-width="2" stroke-linecap="round" stroke-linejoin="round"/>
<path d="M16.5903 39.9129V21.8799H27.4101V39.9129" stroke="black" stroke-width="2" stroke-linecap="round" stroke-linejoin="round"/>
<path d="M5.77051 16.47L22.0002 3.84692L38.2299 16.47V36.3063C38.2299 37.2628 37.8499 38.1802 37.1735 38.8566C36.4972 39.5329 35.5798 39.9129 34.6233 39.9129H9.37711C8.42058 39.9129 7.50322 39.5329 6.82686 38.8566C6.15049 38.1802 5.77051 37.2628 5.77051 36.3063V16.47Z" fill="#ED802A" fill-opacity="0.9" stroke="#ED802A" stroke-width="2" stroke-linecap="round" stroke-linejoin="round"/>
<path d="M16.5903 39.9129V21.8799H27.4101V39.9129" fill="white"/>
<path d="M16.5903 39.9129V21.8799H27.4101V39.9129" stroke="#ED802A" stroke-width="2" stroke-linecap="round" stroke-linejoin="round"/>
<rect x="17.5898" y="39.9099" width="8.82" height="1.01" fill="white"/>
</svg>
