<svg width="45" height="44" viewBox="0 0 45 44" fill="none" xmlns="http://www.w3.org/2000/svg">
<g clip-path="url(#clip0_2794_239)">
<path d="M32.6558 3.6626C38.0846 3.6626 42.5464 8.23526 42.5464 13.9517V14.481C42.5464 17.1818 41.5756 19.7733 39.8433 21.7563L39.4868 22.144L22.0464 40.2222L4.60596 22.144C2.65101 20.1177 1.54639 17.3616 1.54639 14.481V13.9517C1.54639 8.23528 6.00811 3.66262 11.437 3.6626C14.334 3.6626 17.0895 4.98471 18.9702 7.28467L19.1499 7.51025L21.2544 10.2378L22.0464 11.2632L22.8384 10.2378L24.9429 7.51025C26.8252 5.07133 29.6652 3.66262 32.6558 3.6626Z" fill="#ED802A" fill-opacity="0.9" stroke="#ED802A" stroke-width="2"/>
</g>
<defs>
<clipPath id="clip0_2794_239">
<rect width="43.2792" height="43.2792" fill="white" transform="translate(0.742676)"/>
</clipPath>
</defs>
</svg>
