<svg width="45" height="44" viewBox="0 0 45 44" fill="none" xmlns="http://www.w3.org/2000/svg">
<g clip-path="url(#clip0_4042_135)">
<path d="M32.6558 4.1626C38.0846 4.1626 42.5464 8.73526 42.5464 14.4517V14.981C42.5464 17.6818 41.5756 20.2733 39.8433 22.2563L39.4868 22.644L22.0464 40.7222L4.60596 22.644C2.65101 20.6177 1.54639 17.8616 1.54639 14.981V14.4517C1.54639 8.73528 6.00811 4.16262 11.437 4.1626C14.334 4.1626 17.0895 5.48471 18.9702 7.78467L19.1499 8.01025L21.2544 10.7378L22.0464 11.7632L22.8384 10.7378L24.9429 8.01025C26.8252 5.57133 29.6652 4.16262 32.6558 4.1626Z" fill="white" stroke="#ED802A" stroke-width="2"/>
</g>
<defs>
<clipPath id="clip0_4042_135">
<rect width="43.2792" height="43.2792" fill="white" transform="translate(0.742676 0.5)"/>
</clipPath>
</defs>
</svg>
