<svg width="44" height="44" viewBox="0 0 44 44" fill="none" xmlns="http://www.w3.org/2000/svg">
<g clip-path="url(#clip0_4042_139)">
<path d="M39.2655 42.0166V37.5499C39.2655 35.1806 38.3075 32.9084 36.6022 31.233C34.8969 29.5577 32.5841 28.6165 30.1725 28.6165H11.9865C9.57492 28.6165 7.26209 29.5577 5.55683 31.233C3.85156 32.9084 2.89355 35.1806 2.89355 37.5499V42.0166" stroke="#ED802A" stroke-width="2" stroke-linecap="round" stroke-linejoin="round"/>
<path d="M20.6008 20.0021C25.6227 20.0021 29.6938 15.9311 29.6938 10.9091C29.6938 5.88723 25.6227 1.81616 20.6008 1.81616C15.5789 1.81616 11.5078 5.88723 11.5078 10.9091C11.5078 15.9311 15.5789 20.0021 20.6008 20.0021Z" stroke="#ED802A" stroke-width="2" stroke-linecap="round" stroke-linejoin="round"/>
</g>
<defs>
<clipPath id="clip0_4042_139">
<rect width="43.072" height="43.072" fill="white" transform="translate(0.0219727 0.5)"/>
</clipPath>
</defs>
</svg>
