<svg width="16" height="15" viewBox="0 0 16 15" fill="none" xmlns="http://www.w3.org/2000/svg">
<path d="M8.22248 7.14637C9.15995 7.14637 10.059 6.76986 10.7219 6.09967C11.3848 5.42947 11.7572 4.52049 11.7572 3.5727C11.7572 2.6249 11.3848 1.71592 10.7219 1.04573C10.059 0.375534 9.15995 -0.000976562 8.22248 -0.000976562C7.285 -0.000976562 6.38592 0.375534 5.72302 1.04573C5.06012 1.71592 4.68771 2.6249 4.68771 3.5727C4.68771 4.52049 5.06012 5.42947 5.72302 6.09967C6.38592 6.76986 7.285 7.14637 8.22248 7.14637ZM8.22248 8.71648C3.52278 8.71648 0.51001 11.3385 0.51001 12.6152V14.999H15.9349V12.6152C15.9349 11.0713 13.0827 8.71648 8.22248 8.71648Z" fill="white"/>
</svg>
