<svg width="35" height="30" viewBox="0 0 35 30" fill="none" xmlns="http://www.w3.org/2000/svg">
<path d="M11.2211 26.7156C9.73698 26.4881 8.50583 25.7177 7.69526 24.5089C7.38448 24.0457 7.09339 23.3491 6.98948 22.8204C6.90232 22.3771 6.8953 22.1633 6.8953 19.9307V17.6892H6.66488C6.26324 17.6892 5.85629 17.5957 5.50514 17.4254C4.95703 17.1582 4.60831 16.6101 4.49317 15.8348C4.44151 15.4868 4.44172 15.139 4.49385 14.9636C4.65244 14.4296 5.50151 14.3597 5.71197 14.8637C5.73918 14.9296 5.75236 15.0465 5.75257 15.227C5.75359 15.7593 5.83675 16.0434 6.04309 16.22C6.19296 16.3476 6.36758 16.4007 6.64838 16.4028L6.88221 16.4041L6.88858 14.8259L6.89496 13.2474H17.1439H27.393V14.818V16.3888L27.4871 16.4101C27.5388 16.4101 27.6704 16.4313 27.7794 16.4101C28.3934 16.3654 28.6119 16.055 28.6135 15.2283C28.6141 14.9434 28.6469 14.8197 28.7517 14.7073C28.9818 14.4607 29.4683 14.4647 29.7189 14.7073C29.8864 14.8752 29.9253 15.0308 29.9037 15.4481C29.8577 16.3295 29.568 16.9662 29.0593 17.3033C28.6948 17.5446 28.3169 17.6531 27.7633 17.6752L27.3931 17.6964V19.9152C27.3931 22.1979 27.3846 22.4056 27.2849 22.8982C27.1459 23.578 26.8092 24.317 26.3873 24.868C26.219 25.0878 25.8336 25.4845 25.6136 25.6646C25.073 26.1067 24.4443 26.4271 23.7777 26.5995C23.1388 26.7653 23.497 26.7568 17.1926 26.7547C12.4566 26.7547 11.4141 26.7538 11.2211 26.7156ZM6.89541 11.493V10.5705H11.2164H15.5373L15.5805 10.4345C15.6338 10.2644 15.7801 10.0176 15.8991 9.89495L15.9884 9.80354V9.12263V8.44172H17.1445H18.3006V9.12263V9.80354L18.3899 9.89495C18.509 10.0183 18.6552 10.2653 18.7086 10.4345L18.7517 10.5705H23.0727H27.3937V11.493V12.4152H17.1445H6.89526L6.89541 11.493ZM10.8109 9.44066C10.6497 9.40026 10.4979 9.28972 10.4026 9.14644C10.234 8.89197 10.2338 8.68003 10.4017 8.35817C10.5607 8.05353 10.6122 7.88666 10.6284 7.62199C10.6562 7.16875 10.5557 6.82309 10.1181 5.86816C9.71667 4.9923 9.64875 4.79524 9.59435 4.34838C9.50507 3.61475 9.8104 2.78566 10.4094 2.13579C10.6285 1.89812 10.8782 1.82053 11.1604 1.90258C11.3279 1.95148 11.5226 2.10879 11.5989 2.25909C11.6586 2.37601 11.6661 2.58392 11.6138 2.70594C11.5947 2.75271 11.5266 2.84838 11.4633 2.91938C11.2647 3.14345 11.1856 3.25675 11.0922 3.45169C10.9713 3.70425 10.9387 3.87814 10.9534 4.19213C10.9683 4.51377 11.0572 4.79205 11.3614 5.47296C11.6265 6.06628 11.7278 6.33287 11.8126 6.66067C12.0233 7.47403 11.9617 8.12794 11.6073 8.84393C11.4825 9.09584 11.3381 9.3029 11.2333 9.37964C11.137 9.4498 10.9532 9.4768 10.8109 9.44066ZM13.7327 9.2387C13.6173 9.20256 13.4014 9.00443 13.3316 8.87178C13.2531 8.72297 13.251 8.41897 13.3273 8.27144C13.6933 7.56374 13.7155 7.48551 13.7145 6.90749C13.7135 6.39664 13.6858 6.25166 13.4181 5.36156C13.1123 4.34455 13.0493 4.03014 13.0483 3.51568C13.0469 2.85178 13.202 2.32138 13.556 1.77822C13.8282 1.36049 13.9777 1.24527 14.2478 1.24463C14.4326 1.24421 14.6184 1.32966 14.7505 1.47635C14.8776 1.61666 14.9233 1.72784 14.9233 1.89323C14.9233 2.05692 14.8844 2.15131 14.7021 2.42533C14.3615 2.93724 14.2849 3.48635 14.4534 4.20871C14.4812 4.32776 14.5875 4.69256 14.6893 5.01803C14.9921 5.98571 15.0737 6.45 15.044 7.03738C15.017 7.57309 14.8994 8.01846 14.6494 8.53122C14.4513 8.93789 14.3109 9.13772 14.1719 9.21128C14.0482 9.27718 13.8837 9.28759 13.7327 9.2387Z" fill="#ED802A"/>
</svg>
