<svg width="28" height="28" viewBox="0 0 28 28" fill="none" xmlns="http://www.w3.org/2000/svg">
<g clip-path="url(#clip0_4020_595)">
<path d="M20.1826 2.43921C23.549 2.43921 26.2783 5.16843 26.2783 8.53491V8.8562C26.2783 10.4517 25.684 11.9857 24.6182 13.1628L24.3994 13.3933L13.5146 24.2781L2.62988 13.3933C1.42648 12.1899 0.75 10.5581 0.75 8.8562V8.53491C0.75 5.16844 3.47923 2.43921 6.8457 2.43921C8.58163 2.43925 10.2295 3.17882 11.3818 4.46265L11.6055 4.72729L12.9287 6.38062L13.5146 7.11304L14.0996 6.38062L15.4229 4.72729C16.5795 3.28147 18.3309 2.43935 20.1826 2.43921Z" fill="white" stroke="black" stroke-width="1.5"/>
</g>
<defs>
<clipPath id="clip0_4020_595">
<rect width="27.0286" height="27.0286" fill="white"/>
</clipPath>
</defs>
</svg>
