<svg width="26" height="26" viewBox="0 0 26 26" fill="none" xmlns="http://www.w3.org/2000/svg">
<g clip-path="url(#clip0_4020_125)">
<path d="M13.0001 0C5.83183 0 0 5.83183 0 13.0001C0 20.1684 5.83183 26.0002 13.0001 26.0002C20.1684 26.0002 26.0002 20.1684 26.0002 13.0001C26.0002 5.83183 20.1682 0 13.0001 0ZM13.0001 23.2621C7.34148 23.2621 2.73786 18.6587 2.73786 13.0001C2.73786 7.34148 7.34148 2.73786 13.0001 2.73786C18.6587 2.73786 23.2623 7.34148 23.2623 13.0001C23.2623 18.6587 18.6587 23.2621 13.0001 23.2621Z" fill="#1D1D1B"/>
<path d="M18.4209 13.1448H13.0914V8.52835C13.0914 7.77216 12.4786 7.15942 11.7224 7.15942C10.9662 7.15942 10.3535 7.77216 10.3535 8.52835V14.5137C10.3535 15.2699 10.9662 15.8826 11.7224 15.8826H18.4209C19.1771 15.8826 19.7898 15.2699 19.7898 14.5137C19.7898 13.7575 19.1769 13.1448 18.4209 13.1448Z" fill="#1D1D1B"/>
</g>
<defs>
<clipPath id="clip0_4020_125">
<rect width="26" height="26" fill="white"/>
</clipPath>
</defs>
</svg>
