<svg width="26" height="28" viewBox="0 0 26 28" fill="none" xmlns="http://www.w3.org/2000/svg">
<g clip-path="url(#clip0_4020_100)">
<path d="M23.4755 3.81592H17.263C15.1258 3.81592 13.2686 5.43467 12.8014 7.71929C12.3303 5.43467 10.4771 3.81592 8.33987 3.81592H2.13223C0.954845 3.81592 -0.000976562 4.86067 -0.000976562 6.14954V18.0985C-0.000976562 19.3865 0.954046 20.4322 2.13223 20.4322H6.11789C10.6594 20.4322 12.0144 21.6178 12.6631 24.0783C12.6943 24.2148 12.8942 24.2148 12.9294 24.0783C13.5829 21.6187 14.9378 20.4322 19.4746 20.4322H23.4603C24.6376 20.4322 25.5935 19.3874 25.5935 18.0985V6.15479C25.5935 4.87117 24.6472 3.82642 23.4739 3.81679L23.4755 3.81592ZM10.753 16.7169C10.753 16.8097 10.6866 16.8867 10.5979 16.8867H3.47438C3.39039 16.8867 3.31921 16.814 3.31921 16.7169V15.6039C3.31921 15.512 3.38559 15.4342 3.47438 15.4342H10.6019C10.6858 15.4342 10.757 15.5068 10.757 15.6039V16.7169H10.753ZM10.753 13.7568C10.753 13.8487 10.6866 13.9265 10.5979 13.9265H3.47438C3.39039 13.9265 3.31921 13.8539 3.31921 13.7568V12.6438C3.31921 12.551 3.38559 12.474 3.47438 12.474H10.6019C10.6858 12.474 10.757 12.5467 10.757 12.6438V13.7568H10.753ZM10.753 10.7967C10.753 10.8885 10.6866 10.9664 10.5979 10.9664H3.47438C3.39039 10.9664 3.31921 10.8938 3.31921 10.7967V9.68367C3.31921 9.59179 3.38559 9.51392 3.47438 9.51392H10.6019C10.6858 9.51392 10.757 9.58654 10.757 9.68367V10.7967H10.753ZM22.2757 16.7125C22.2757 16.8044 22.2093 16.8823 22.1205 16.8823H14.997C14.913 16.8823 14.8419 16.8097 14.8419 16.7125V15.5995C14.8419 15.5077 14.9082 15.4298 14.997 15.4298H22.1245C22.2093 15.4298 22.2797 15.5024 22.2797 15.5995V16.7125H22.2757ZM22.2757 13.7524C22.2757 13.8452 22.2093 13.9222 22.1205 13.9222H14.997C14.913 13.9222 14.8419 13.8495 14.8419 13.7524V12.6394C14.8419 12.5475 14.9082 12.4697 14.997 12.4697H22.1245C22.2093 12.4697 22.2797 12.5423 22.2797 12.6394V13.7524H22.2757ZM22.2757 10.7914C22.2757 10.8833 22.2093 10.9612 22.1205 10.9612H14.997C14.913 10.9612 14.8419 10.8885 14.8419 10.7914V9.68279C14.8419 9.59092 14.9082 9.51304 14.997 9.51304H22.1245C22.2093 9.51304 22.2797 9.58567 22.2797 9.68279V10.7914H22.2757Z" fill="#ED802A"/>
</g>
<defs>
<clipPath id="clip0_4020_100">
<rect width="25.5952" height="28" fill="white"/>
</clipPath>
</defs>
</svg>
